<?xml version="1.0" encoding="UTF-8"?>
<svg id="Capa_1" xmlns="http://www.w3.org/2000/svg" version="1.1" xmlns:xlink="http://www.w3.org/1999/xlink" viewBox="0 0 1024 1024">
  <!-- Generator: Adobe Illustrator 30.3.0, SVG Export Plug-In . SVG Version: 2.1.3 Build 182)  -->
  <defs>
    <style>
      .st0 {
        stroke: #abe585;
        stroke-miterlimit: 10;
        stroke-width: 96px;
      }

      .st0, .st1 {
        fill: none;
      }

      .st2 {
        fill: #073d5a;
      }

      .st3 {
        clip-path: url(#clippath);
      }

      .st4 {
        fill: #1e7ca5;
      }
    </style>
    <clipPath id="clippath">
      <path class="st1" d="M982.2,512.5c0,162.1-82,305-206.9,389.6-75.1,50.9-96.7,121.9-194.3,121.9s-219.3-60-283.6-93.1c-151.7-78-255.5-236.1-255.5-418.4S160.2,150.7,329,79.3C385.2,55.5,403.9,0,468.8,0s188.4,59.7,251.1,90.6c155.4,76.7,262.3,236.8,262.3,421.8h0Z"/>
    </clipPath>
  </defs>
  <g class="st3">
    <g>
      <g>
        <circle class="st2" cx="512" cy="512" r="470.2"/>
        <path class="st4" d="M831.4,386.9l7.5,5.4h7v-13.5l22.1-2.1,21,15.7h34.5l2.4-2.2c-3.5-11.6-7.4-23.1-11.7-34.3l-22.5.4-11.3-12.4-2.2-20-11.6,6.3-6.2,24.4-16.7-17.8-.7-16.8-16.1-13.9-5.9-5.9h-18.7l5.9,16.7,22.5,12.6,3.9,4.2-4.9,2.4.2,13.2-11,4.6-9.4-2.1-5.9-8.3,15.3.8,4.1-5.6-33.8-22.8-2.6-9.7-13.7,12.4-13.9-2.9-21.2,27.5-4.2,10.8-13.5,1.2h-20c0,.1-12-5.5-12-5.5l-3.5-23.8,4.3-11.3,20.4-4.5,22.2,4.5,2.7-12.3-9.4-2.2,3.2-19.2,22.4-3.5,15.7-22.1,16.2-2.7,14.6,2.2h5.4l-3-20.8-17.7,7.2-6.2-15.5-10.3-1.4-1.9-10.6,8.4-9.1,20-7.8,5.1-9.2c-76.3-67.2-176.3-108.1-285.7-108.1s-182.8,30.8-254.3,82.9l21.8-.2,9.7,5.4,18.3,4,1.4,7.2,29.1,1.1-4-9.4-25.9-.7,6.1-5.7-2.1-6.8h-23.4l25.5-19.1h24.5l11.5,15.8,19.1,1.1,11.5-11.2,8.6,4.3-15.8,15.5s-21.9.4-20.8.4,1.8,15.1,1.8,15.1l26.6-.7,2.9-7.2,18.3-1.1,2.2-10.8-10.8-1.8,3.6-9.7,8.3-2.5,28.8,1.4-15.9,14.4,2.6,11.1,16.5,2.5-1.1-20.1,15.8-8.3,28.1-3.2,40.6,18v15.5l12.9,3.2-6.5,12.2h-18.3l-5.4,14-41.9-9.9,32.9-17.6-12.6-10.7-28.4,3.6-2.5,2.6h0l-.4.6-8.2,8.5-13.5,1.1,1.1,6.7,4.7,2-.2,2.2-11,1.6-.8,6.4-10.5.5-1.9-12.7-18.9,5.7-38.6,22.6,4.3,15.9,10.8,7,21.6,3v24.5l10-1.6,9.2-19.2,22.9-7.3v-29.4l12.8-9.6,30.8,7.3-2.2,19.4h8.3l22.7-11.1,1.1,25.5,16.5,10.1-.7,15.1-15.8,5.4,1.1,5,19.1,8.7-.4,10.4-5.5.5v-.3l-24-7.4-1-7.7h0l7-4.8v-7l-7.6-1.9-1.9,6.5-13.3,2.1-1.3-.4v.7l-4.6.7-3.7-7.6-4.3-1.9h-9.4l-4.3,3.5v7.8l8.1,2.7,8,1.1-1.8.8-7.3,8.1-3.2-4-7-1.9-19.2,18,2.5,2.1-28.3,15.7-26.6,27.7-1.8,12.3-26.7,17.5-13.2,13.3,1.5,26.6-18.3-8.5v-15.6c.1,0-50.9,0-50.9,0l-26.4,13.4-11.5,21.2-4.6,16.8,7.4,16.3,20.8,2.5,33.1-22.1,2.9,11-10.1,19.1,25.2,4.3,2.5,38.9,34.5,5.9,21.9-25.4,26.6,5.4,9.4,13,25.5-1.5.7-7.5,14,6.8,15.8,24.8,27.3.4,10.1,17.6,1.4,21.6,30.2,11.5,38.1.4,11.2,18.3,16.9,5.4-3.2,15.1-18.5,23.5-5.4,52.1-16.7,13.2-24.8-.7-8.3,14.4,6.1,27-27,34.5-8.6,15.8-25.7,12.3-16.9,2.6-.7,7.2,11.9,3.4-1.4,7.7-10.6,10.2,6.5,8.1,12.8.4-.7,9.9-3.4,9.7-1.1,7.9,18.9,15.9-2.5,8.3-25.8-.5-25.6-22.4-20-35.1,2.8-33.9-15.1-20.2,6.1-34.2-9-2.5v-74.1s-25.2-19.1-26.6-19.1-13.3-3.2-13.3-3.2l-2.5-14-32.7-41,3.2-14.7,1.1-24.1,22.7-15.8-3.2-27-33.1-2.5-25.9-29.5-18.3-5.1-11.9-2.2,1.4-10.8-15.1-2.1v6.1l-37.8-9.4-15.2-23.3,6.2-11.3-23.9-34.9-4.1-25.5h-9.7l3.2,24.8,16.5,25.5-1.8,10.1-14-2.2-17.3-29.4v-34.2l-18-8.6v-24.6c-22.2,52-34.5,109.3-34.5,169.4,0,238.7,194.3,423.2,432.8,432.8,146.5,5.9,282.6-88.6,335.7-160h-14.3v-28.8l-16.5-22.2v-34.6l-12.6-12.6-1.1-14.4,16-30.6-30.4-53.6,3.6-36.4-27.3-2.8-10.1-10.1h-18.4l-9.3,8.6h-32.4l-1.1,2.9h-18l-41.3-47.1.3-36.7,6.8-2.5,2.5-14h-9.7l-4-14.7,47.8-34.5v-24.5l23.4-13,9.5.9h19.2l15.1-8.1,48.6-3.8v24.8l38.4,9.7h-.3ZM710,232.6l4-6.1,14.2-2.9,3.6,17.3,7.6,12.2,5,5.8,9.2,3.6-8.6,10.3-16.7,1.6h-12.6l1.4-14.9,10.5-2.2-.9-7-9.7-6.1-6.8-4.7v-6.8h-.2ZM686.6,259.5l8.6-13.8,11.6-2.7,8.3,3.6-.8,9.4-17.8,12.6h-10v-9h.1ZM451.5,312.8l-9,.8.5-6.3,4-5,5.4,4.3-.9,6.3h0ZM483.1,301.7l-6.2.5-1.2,5.9-4.7,3-7.6.6c-.3-1.8-.4-3.1-.4-3.1h-3v-6.4h12.4l2.6-6.6h4.9l5.6,1.1-2.4,5h0Z"/>
      </g>
      <polyline class="st0" points="0 512 305 518.1 447.6 159.5 618.8 850.4 733.4 512 1024 512"/>
    </g>
  </g>
</svg>